<?xml version="1.0" encoding="utf-8"?>
<!-- Generator: Adobe Illustrator 26.5.0, SVG Export Plug-In . SVG Version: 6.00 Build 0)  -->
<!DOCTYPE svg PUBLIC "-//W3C//DTD SVG 1.1//EN" "http://www.w3.org/Graphics/SVG/1.1/DTD/svg11.dtd" [
	<!ENTITY st0 "opacity:0.2;fill:#D1D5DB;enable-background:new    ;">
	<!ENTITY st1 "fill:#5750F1;">
	<!ENTITY st2 "fill:#FFFFFF;">
]>
<svg version="1.1" id="Capa_1" xmlns="http://www.w3.org/2000/svg" xmlns:xlink="http://www.w3.org/1999/xlink" x="0px" y="0px"
	 width="174px" height="30px" viewBox="0 0 174 30" style="enable-background:new 0 0 174 30;" xml:space="preserve">
<path style="&st0;" d="M30,15c0,8.3-6.7,15-15,15C6.7,30,0,23.3,0,15C0,6.7,6.7,0,15,0C23.3,0,30,6.7,30,15z M5.8,15
	c0,5.1,4.1,9.2,9.2,9.2c5.1,0,9.2-4.1,9.2-9.2c0-5.1-4.1-9.2-9.2-9.2C9.9,5.8,5.8,9.9,5.8,15z"/>
<path style="&st1;" d="M26.1,10.1c1.5-0.6,3.2,0,3.6,1.6c0.5,2.3,0.5,4.7-0.1,7c-0.8,3.2-2.7,6.1-5.4,8.2c-2.7,2-5.9,3.1-9.3,3.1
	c-3.3,0-6.6-1.2-9.2-3.2c-2.6-2.1-4.5-5-5.3-8.2c-0.8-3.3-0.5-6.7,0.9-9.7c1.4-3,3.8-5.5,6.7-7.1C10.2,0.6,12.5,0,14.8,0
	c1.6,0,2.7,1.5,2.4,3.1l0,0c-0.3,1.6-1.8,2.6-3.4,2.8c-1,0.1-2.1,0.5-3,1c-1.8,0.9-3.3,2.5-4.1,4.3c-0.8,1.9-1,4-0.6,6
	c0.5,2,1.6,3.8,3.2,5c1.6,1.3,3.6,2,5.6,2c2,0,4-0.7,5.7-1.9c1.6-1.3,2.8-3,3.3-5c0.3-1,0.3-2.1,0.2-3.2
	C24,12.5,24.6,10.8,26.1,10.1L26.1,10.1z"/>
<g>
	<path style="&st2;" d="M55.4,13.4c-0.8-0.3-1.7-0.5-2.6-0.7c-0.9-0.1-1.7-0.3-2.5-0.4c-0.7-0.2-1.3-0.4-1.8-0.8
		c-0.4-0.3-0.6-0.7-0.6-1.4c0-0.6,0.3-1.1,0.8-1.5C49.3,8.2,50.1,8,51.1,8c0.5,0,1,0,1.3,0.1c0.4,0.1,0.8,0.2,1.1,0.3
		c0.3,0.1,0.7,0.3,1.1,0.5l1.5,0.8l1.8-2.6l-0.3-0.2c-0.6-0.4-1.2-0.7-1.7-1c-0.5-0.3-1-0.5-1.5-0.7c-0.5-0.2-1-0.3-1.5-0.4
		c-0.5-0.1-1-0.1-1.6-0.1c-1,0-1.9,0.1-2.6,0.4c-0.8,0.3-1.5,0.6-2.1,1.1c-0.6,0.5-1,1.1-1.3,1.7c-0.3,0.7-0.5,1.4-0.5,2.3
		c0,1.4,0.5,2.6,1.5,3.5c1,0.9,2.3,1.5,4.1,1.7c0.4,0.1,1,0.1,1.6,0.2c0.6,0.1,1.1,0.2,1.6,0.3c0.5,0.2,0.9,0.4,1.2,0.7
		c0.3,0.3,0.4,0.7,0.4,1.2c0,0.5,0,2.2-4.1,2.2c-0.8,0-1.6-0.1-2.4-0.4c-0.8-0.3-1.7-0.8-2.6-1.5L45.7,18L44,20.7l0.3,0.2
		c0.7,0.5,1.3,0.9,1.9,1.2c0.6,0.3,1.1,0.6,1.7,0.7c0.5,0.2,1.1,0.3,1.6,0.4c0.5,0.1,1.1,0.1,1.8,0.1c0.7,0,1.4-0.1,2.1-0.2
		c0.7-0.1,1.3-0.3,1.8-0.5l0.2-0.2v0c0.9-0.4,1.6-1.1,2.1-1.9c0.6-0.9,0.8-1.9,0.8-3c0-1.2-0.3-2.2-0.9-2.8
		C57,14.2,56.3,13.7,55.4,13.4z"/>
	<rect x="61.3" y="11" style="&st2;" width="3.2" height="12.4"/>
	<path style="&st2;" d="M61.5,5.4c-0.4,0.4-0.6,0.9-0.6,1.4c0,0.6,0.2,1,0.6,1.4c0.4,0.4,0.8,0.6,1.4,0.6c0.6,0,1.1-0.2,1.5-0.6
		C64.8,7.8,65,7.3,65,6.8c0-0.6-0.2-1-0.6-1.4C63.6,4.6,62.2,4.6,61.5,5.4z"/>
	<path style="&st2;" d="M81.1,11c-1.7,0-3.1,0.6-4,1.9C76.2,11.6,75,11,73.5,11c-0.7,0-1.4,0.1-2.1,0.4c-0.4,0.2-0.8,0.4-1.1,0.7
		v-0.8h-3.1v12.2h3.1v-6.6c0-0.8,0.2-1.5,0.7-2c0.5-0.5,1.1-0.8,1.9-0.8c0.7,0,1.2,0.2,1.5,0.6c0.4,0.4,0.6,1,0.6,1.8v6.9H78v-6.5
		c0-0.9,0.2-1.5,0.7-2.1c0.5-0.5,1.1-0.7,1.9-0.7c0.7,0,1.2,0.2,1.6,0.6c0.4,0.4,0.6,1.1,0.6,1.9v6.8h3.1v-7c0-1.7-0.4-3.1-1.2-4
		C83.8,11.5,82.6,11,81.1,11z"/>
	<path style="&st2;" d="M99.8,12.7c-0.5-0.6-1.2-1-2-1.3c-0.7-0.3-1.6-0.5-2.5-0.5c-1.2,0-2.3,0.3-3.2,0.8v-0.5H89v17.1h3.2v-5.7
		c1,0.5,2.1,0.8,3.4,0.8c0.9,0,1.7-0.2,2.4-0.5c0.7-0.3,1.4-0.7,1.9-1.3c0.5-0.5,0.9-1.2,1.2-2c0.3-0.8,0.4-1.6,0.4-2.5
		c0-0.9-0.2-1.7-0.5-2.5C100.8,13.9,100.3,13.3,99.8,12.7z M92.8,14.8c0.6-0.5,1.3-0.8,2.4-0.8c1,0,1.8,0.3,2.4,0.9
		c0.6,0.6,0.9,1.3,0.9,2.3c0,1-0.3,1.7-0.8,2.3c-0.6,0.5-1.3,0.8-2.4,0.8c-1,0-1.9-0.3-2.4-0.8c-0.6-0.6-0.9-1.3-0.9-2.3
		C91.9,16.1,92.2,15.4,92.8,14.8z"/>
	<path style="&st2;" d="M107.9,20.3c-0.2,0-0.3,0-0.4-0.1c-0.1,0-0.1-0.1-0.2-0.3c0-0.1-0.1-0.4-0.1-0.8V4.8H104v14.7
		c0,2.6,1.3,3.9,3.8,3.9h1.4v-3.1h-0.4C108.4,20.3,108.1,20.3,107.9,20.3z"/>
	<path style="&st2;" d="M111.7,5.4c-0.4,0.4-0.6,0.9-0.6,1.4c0,0.6,0.2,1,0.6,1.4c0.4,0.4,0.8,0.6,1.4,0.6c0.6,0,1.1-0.2,1.5-0.6
		c0.4-0.4,0.6-0.9,0.6-1.4c0-0.6-0.2-1-0.6-1.4C113.8,4.6,112.5,4.6,111.7,5.4z"/>
	<rect x="111.6" y="11" style="&st2;" width="3.2" height="12.4"/>
	<polygon style="&st2;" points="126.8,14.6 118.8,4.8 117.7,4.8 117.7,23.4 120.9,23.4 120.9,12.5 126.8,19.9 132.8,12.5 
		132.8,23.4 136,23.4 136,4.8 134.9,4.8 	"/>
	<path style="&st2;" d="M149.2,18.4c0.2-0.5,0.3-1.1,0.3-1.9c0-0.8-0.1-1.6-0.4-2.2c-0.3-0.7-0.7-1.3-1.2-1.8
		c-0.5-0.5-1.1-0.9-1.8-1.2c-1.4-0.6-3.3-0.5-4.7,0.1c-0.7,0.3-1.4,0.8-1.9,1.3c-0.5,0.6-1,1.2-1.2,2c-0.3,0.8-0.4,1.6-0.4,2.6
		c0,1.9,0.6,3.4,1.9,4.5c1.2,1.1,3,1.6,5.1,1.6c0.9,0,1.7-0.1,2.5-0.3c0.8-0.2,1.4-0.4,1.8-0.8l0.1-0.1v-2.5l-0.4,0.1
		c-0.7,0.1-1.4,0.2-2.1,0.3c-0.7,0.1-1.4,0.2-2,0.2c-1,0-1.9-0.2-2.5-0.6c-0.5-0.3-0.8-0.6-1-1.1h7.9L149.2,18.4z M146.3,15.7h-5.1
		c0.2-0.4,0.4-0.8,0.8-1.1c0.5-0.4,1.1-0.6,1.8-0.6c0.8,0,1.4,0.2,1.8,0.6C146,14.9,146.2,15.3,146.3,15.7z"/>
	<path style="&st2;" d="M161.3,4.8v7c-1-0.5-2.1-0.8-3.4-0.8c-0.9,0-1.7,0.2-2.4,0.5c-0.7,0.3-1.4,0.7-1.9,1.3
		c-0.5,0.5-0.9,1.2-1.2,2c-0.3,0.8-0.4,1.6-0.4,2.5c0,0.9,0.2,1.7,0.5,2.5c0.3,0.8,0.7,1.4,1.3,2c0.5,0.6,1.2,1,2,1.3
		c0.8,0.3,1.6,0.5,2.5,0.5c1.2,0,2.3-0.3,3.2-0.8v0.5h3.2V4.8H161.3z M158.3,20.3c-1,0-1.8-0.3-2.4-0.9c-0.6-0.6-0.9-1.3-0.9-2.3
		c0-1,0.3-1.7,0.8-2.3c0.6-0.5,1.4-0.8,2.4-0.8c1,0,1.9,0.3,2.4,0.8c0.6,0.6,0.9,1.3,0.9,2.3s-0.3,1.7-0.8,2.3
		C160.1,20.1,159.4,20.3,158.3,20.3z"/>
</g>
</svg>
